<svg version="1.1"
     xmlns="http://www.w3.org/2000/svg" xmlns:xlink="http://www.w3.org/1999/xlink" xmlns:a="http://ns.adobe.com/AdobeSVGViewerExtensions/3.0/"
     x="0px" y="0px" width="1701.4px" height="267.4px" viewBox="0 0 1701.4 267.4" style="enable-background:new 0 0 1701.4 267.4;"
     xml:space="preserve">
<style type="text/css">
    .st0{fill:#FFFFFF;}
</style>
<defs>
</defs>
<g>
    <path id="_x23_0da8ffff_1_" class="st0" d="M159.5,0.3c29.5-1.9,59.5,4,86,17.2c39.1,19.2,70.2,53.9,84.9,94.8
        c6.5,18.1,10,37.2,10,56.4V240c0,2.9,0.1,5.9-0.6,8.7c-1.6,7.2-6.7,13.5-13.5,16.6c-4.7,2.2-10.1,2.5-15.1,1.7
        c-10.9-2-19.3-12.2-19.4-23.2c-0.1-22.1,0-44.2,0-66.4c0.2-6.3,0.2-13-3.2-18.5c-5.5-10.2-18.9-15.1-29.6-10.7
        c-9.1,3.2-15.7,12.4-15.8,22.1c-0.1,22.5,0,44.9,0,67.3c0,4.2,0.2,8.5-1,12.5c-2.3,7.9-8.9,14.3-16.8,16.5
        c-10.4,2.9-22.3-1.7-27.6-11.3c-3.6-5.8-3.3-12.8-3.2-19.2c-0.1-22.3,0.1-44.6-0.1-66.9c-0.2-11.3-9.5-21.5-20.8-23
        c-7.3-1.1-15,1.3-20.3,6.5c-4.8,4.5-7.5,11-7.5,17.6v65c-0.1,5.5,0.6,11.1-1.5,16.2c-3.2,9.3-12.6,16.1-22.5,15.8
        c-10.1,0.6-20-6.4-23.2-15.9c-1.8-4.7-1.4-9.7-1.4-14.7c0-22.4,0.1-44.8,0-67.3c-0.1-11.1-8.7-21.2-19.6-23.2
        C67.9,144.1,57,149.1,52,158c-2.1,3.7-3.2,8-3.2,12.2V243c0.1,7.1-3.2,14.1-8.6,18.6c-8.2,7.2-21.5,7.6-30.2,1
        c-6.3-4.3-10-11.6-10-19.2v-73.7c0.1-27.9,7.1-55.7,20.4-80.2c10.9-20,25.8-37.9,43.7-52.1C91.1,15.5,124.9,2.4,159.5,0.3z"/>
    <g>
        <path class="st0" d="M822.3,85.8c-12.4,0-24.3,0-36.9,0c1.3-25.9,6.7-49.2,30.4-63.9C839.3,7.3,865.2,4,892.1,6.2
            c14.6,1.2,28.8,4.3,42.2,10.5c23.5,10.8,35.1,29.3,35.1,55c0.1,45.6,0,91.3,0,136.9c0,16.8,3.4,19.9,20.2,18.2
            c1.8-0.2,3.6-0.5,5.5-0.8c0.2,0.9,0.4,1.6,0.4,2.3c0,9.1,0,18.2,0,27.7c-13.4,4.5-26.8,5.9-40.3,2.3c-9.8-2.7-16.1-9.8-19.5-19.2
            c-1.7-4.8-2.7-9.8-4.3-15.4c-1.4,1.6-2.6,3.1-4,4.4c-29.1,29.5-63.8,41.9-104.6,31.6c-28.9-7.3-48.9-33.8-49.6-63.7
            c-0.2-9.6,0.6-19.4,2.9-28.7c5.3-21.6,20.6-34.6,40.1-43.3c13.7-6.2,28.3-8,43-9.8c17.2-2.2,34.4-4.3,51.6-6.7
            c11.7-1.6,17.6-7.8,19.4-19.6c3.7-23.4-6.7-39.2-29.6-44.8c-13.6-3.3-27.5-3.9-41.3-1.3c-20.4,3.7-31.8,15.2-35.8,35.5
            C823.3,79.9,822.9,82.6,822.3,85.8z M931,131.1c-17,9.2-33.5,11.4-50.1,13.9c-14,2.2-28.2,4.2-41.6,8.6c-18,5.9-26,20.7-24.5,40.5
            c1.3,16.5,12.6,29.8,30.3,32.7c27.5,4.6,51.9-3,71.1-23.4c5.6-5.9,10.1-14.5,11.3-22.5C930,165,929.9,148.7,931,131.1z"/>
        <path class="st0" d="M1456.3,178.7c-0.9,4-1.4,7.4-2.4,10.6c-16,48.4-48.1,69.3-87.2,73.6c-67.8,7.5-106.5-36.9-116.5-84
            c-7.9-37.4-6.8-74.6,9.6-109.8c15.5-33.2,40.5-55.1,77.7-61.6c44.4-7.8,107.5,14.1,118.1,83.7c2.7,17.9,3.3,36.2,5,55.1
            c-58.3,0-115,0-172.3,0c1.5,25.5,5.5,49.3,24.1,67.9c7.7,7.7,17.6,11.4,28.3,13.2c35,6.1,63.7-10.6,75.1-44.1
            c1.2-3.6,2.8-4.7,6.5-4.6C1433.4,178.9,1444.5,178.7,1456.3,178.7z M1289.7,113.5c43.1,0,85.9,0,129,0c-1.4-14.9-4.1-28.9-11-41.9
            c-6.7-12.6-16.7-21.6-30.3-26.2C1332.8,30.1,1286.7,65.7,1289.7,113.5z"/>
        <path class="st0" d="M1549.1,254.8c-13.4,0-26.1,0-39.2,0c0-81.1,0-162,0-243.2c12.3,0,24.5,0,37.2,0c0,11,0,21.6,0,34.1
            c2.8-3.2,4.6-5.2,6.3-7.1c26.6-30.4,60.2-38.4,98.2-29c26.5,6.5,41.2,25.2,46.2,51.4c2.1,10.7,3.3,21.7,3.4,32.6
            c0.4,52.2,0.2,104.4,0.2,156.6c0,1.4-0.2,2.9-0.3,4.6c-13.2,0-26.3,0-40.1,0c0-2.4,0-4.5,0-6.6c0-48.7,0.3-97.5-0.2-146.2
            c-0.1-10.8-1.6-21.9-4.7-32.2c-5.1-17.1-18.7-26.2-36.6-26.8c-32.5-1.1-58.4,16.1-66.3,45.2c-2.8,10.4-3.7,21.6-3.8,32.5
            c-0.4,42.3-0.2,84.7-0.3,127C1549.1,249.8,1549.1,252,1549.1,254.8z"/>
        <path class="st0" d="M1033.4,11.6c12.9,0,25.1,0,37.8,0c0,33.9,0,67.7,0,103c2.4-2.3,3.8-3.5,5.2-4.8
            c30.9-31.5,61.9-63.1,92.7-94.7c2.6-2.7,5.2-3.9,9-3.9c14.5,0.2,29.1,0.1,45.1,0.1c-2.2,2.3-3.4,3.7-4.7,5.1
            c-27.2,27.3-54.3,54.6-81.7,81.8c-3.1,3-3.2,5-1,8.6c29.7,47.3,59.2,94.6,88.8,142c1.1,1.7,2.1,3.4,3.5,5.9c-2,0.2-3.5,0.4-5,0.4
            c-13.5,0-27-0.1-40.5,0.1c-3.7,0.1-5.5-1.3-7.3-4.3c-22.6-38.1-45.4-76.1-68.1-114.2c-1-1.7-2.1-3.3-3.4-5.3
            c-10.5,10.4-20.7,20.5-30.8,30.9c-1.3,1.3-1.6,3.9-1.6,6c-0.1,26.7-0.1,53.3-0.1,80c0,2,0,4,0,6.9c-7.5,0-14.7,0.1-21.9,0
            c-5.2-0.1-12.1,1.3-15.1-1.4c-2.6-2.4-1-9.6-1-14.7c0-73.4,0-146.8,0-220.2C1033.4,16.5,1033.4,14.2,1033.4,11.6z"/>
        <path class="st0" d="M597.9,11.3c-30.7,30.4-60.5,60.1-90.5,89.8c32.2,51.6,63.7,102.1,95.9,153.7c-2.6,0.1-4.2,0.3-5.9,0.3
            c-13.1,0-26.3-0.1-39.4,0.1c-3.8,0.1-5.9-1.3-7.8-4.5c-22.6-38.1-45.4-76.1-68.1-114.2c-0.9-1.6-1.9-3.1-3.4-5.5
            c-5.8,6-10.8,12.4-17.1,17.1c-12.7,9.6-16.5,21.6-15.5,37.3c1.3,20.7,0.3,41.6,0.3,62.4c0,2.2,0,4.3,0,6.8c-12.7,0-24.9,0-37.5,0
            c0-80.9,0-161.8,0-243.1c12.3,0,24.4,0,37.3,0c0,33.9,0,67.7,0,101.5c0.8,0.5,1.6,1.1,2.4,1.6c1-1.7,1.6-3.8,2.9-5.1
            c30.7-31.5,61.6-62.8,92.3-94.3c2.7-2.8,5.4-4.2,9.5-4.1c12.8,0.3,25.6,0.1,38.3,0.1C593.4,11.3,595.2,11.3,597.9,11.3z"/>
        <path class="st0" d="M672.8,51.6c19-27.8,39.2-51,76.7-44.3c0,14.2,0,28.3,0,41.6c-10,0.7-19.8,0.4-29.1,2.3
            c-23.1,4.8-40.9,25.9-44.4,51.3c-0.7,5-1,10.2-1,15.3c-0.1,43.4,0,86.9,0,130.3c0,2.1,0,4.3,0,6.7c-13.3,0-25.9,0-39.1,0
            c0-81,0-161.8,0-243.1c12.1,0,24.2,0,37,0C672.8,24.7,672.8,37.5,672.8,51.6z"/>
    </g>
</g>
</svg>
