<?xml version="1.0" encoding="UTF-8"?>
<svg width="120px" height="29px" version="1.1"  xmlns="http://www.w3.org/2000/svg" xmlns:xlink="http://www.w3.org/1999/xlink"
     viewBox="0 0 120 29.1" enable-background="new 0 0 120 29.1" xml:space="preserve">
  <g fill="#12326B">
    <path d="M49.4,1c-1.1,0-1.9,0.9-1.9,2v14c0,4.9-3.5,8.3-8.5,8.3c0,0,0,0,0,0c-5,0-8.4-3.4-8.5-8.3V3c0-1.1-0.9-2-1.9-2 c-1,0-1.9,0.9-1.9,2v14.2c0,3.7,1.2,6.8,3.6,8.9c2.1,1.9,5.1,3,8.4,3.1v0H39l0.2,0l0.3,0l0,0c3.2-0.1,6.1-1.2,8.2-3.1 c2.3-2.1,3.5-5.2,3.5-8.9V3C51.3,1.9,50.4,1,49.4,1z"/>
    <path d="M18.3,25l-6,0c-4.9,0-8.4-3.4-8.5-8.3v-14c0-1.1-0.9-2-1.9-2c-1,0-1.9,0.9-1.9,2v14.2c0,3.7,1.2,6.8,3.6,8.9 c2.1,1.9,5.1,3,8.4,3.1v0h0.4l0.2,0l0.1,0l0,0h5.6c1.1,0,1.9-0.9,1.9-2C20.2,25.8,19.3,25,18.3,25z"/>
    <path d="M82.1,28.1c-1.1,0-1.9-0.9-1.9-2v-14c0-4.9-3.5-8.3-8.5-8.3c0,0,0,0,0,0c-5,0-8.4,3.4-8.5,7.9v14c0,1.5-0.9,2.4-1.9,2.4 c-1,0-1.9-0.9-1.9-2V12c0-3.7,1.2-6.8,3.6-8.9C65,1.1,68,0.1,71.3,0v0h0.4l0.2,0l0.3,0l0,0c3.2,0.1,6.1,1.2,8.2,3.1 C82.8,5.3,84,8.4,84,12v14.2C84,27.2,83.1,28.1,82.1,28.1z"/>
    <path d="M105.9,29c-4,0-7.6-1.5-10.2-4.2c-2.5-2.6-3.9-6.1-3.9-9.9v-0.1c0-3.8,1.4-7.3,3.9-9.9c2.6-2.8,6.3-4.3,10.2-4.3 c4,0,7.6,1.5,10.2,4.2c2.5,2.6,3.9,6.1,3.9,9.9v0.1c0,3.8-1.4,7.3-3.9,9.9C113.5,27.5,109.8,29,105.9,29z M105.9,4.2 c-5.7,0-10.1,4.5-10.1,10.5v0.1c0,2.9,1,5.5,2.9,7.5c1.9,2,4.5,3.1,7.3,3.1c5.7,0,10.1-4.5,10.1-10.5v-0.1c0-2.9-1-5.5-2.9-7.5 C111.3,5.3,108.7,4.2,105.9,4.2z"/>
  </g>
</svg>
